#!OML:ASF G:\JayActor3\Patient Classification 1\Patient 1\Session 6\male.ASF
:FULLY-SPECIFIED
:DEGREES
552
root 16.4254 15.7574 -20.4535 160.591 -68.755 -163.256
lowerback 1.36618 5.49886 12.6853
upperback 6.37861 6.82931 0.483387
thorax 7.54807 4.01966 -6.08503
lowerneck 15.8208 10.6143 6.99353
upperneck -10.2992 14.8873 -6.8378
head -4.57957 7.53642 -4.33987
rclavicle 1.42876e-015 -7.60351e-015
rhumerus -24.2521 8.14718 -83.1401
rradius 54.1647
rwrist -1.25228
rhand -21.1259 -13.4517
rfingers 7.12502
rthumb 5.25277 -43.3666
lclavicle 1.42876e-015 -7.60351e-015
lhumerus -43.7241 11.01 59.0047
lradius 18.9297
lwrist 24.0132
lhand -16.0536 9.40565
lfingers 7.12502
lthumb 10.1485 39.1409
rfemur 10.0387 -2.69889 23.895
rtibia 26.5972
rfoot -29.4731 -15.0109
rtoes -6.55984
lfemur -24.0768 23.1577 -25.1844
ltibia 32.6675
lfoot -20.4543 12.0749
ltoes -1.36123
553
root 16.2848 15.7626 -20.5206 160.406 -68.5822 -162.86
lowerback 1.14154 5.59896 12.4866
upperback 5.89026 7.02222 0.161687
thorax 7.18916 4.09166 -6.31116
lowerneck 15.9002 10.7512 6.80286
upperneck -10.4614 15.106 -6.25582
head -4.68899 7.59995 -4.16677
rclavicle 4.14839e-014 1.64991e-014
rhumerus -24.6511 8.20318 -83.9309
rradius 54.0491
rwrist -0.832214
rhand -21.0766 -13.3449
rfingers 7.12502
rthumb 5.30036 -43.2587
lclavicle 4.14839e-014 1.64991e-014
lhumerus -43.2522 12.0318 58.1526
lradius 18.1484
lwrist 23.1139
lhand -16.9264 9.14316
lfingers 7.12502
lthumb 9.30639 38.9177
rfemur 10.5011 -2.46273 24.168
rtibia 26.4119
rfoot -29.0838 -15.1148
rtoes -7.9347
lfemur -24.1188 23.6436 -24.7891
ltibia 33.3345
lfoot -20.2273 11.53
ltoes 0.533467
554
root 16.1496 15.7733 -20.5828 160.766 -68.5907 -163.075
lowerback 0.980795 5.65314 12.0679
upperback 5.40761 7.16729 -0.235155
thorax 6.77021 4.12859 -6.50895
lowerneck 15.8787 10.8938 6.58356
upperneck -10.4987 15.3248 -5.65127
head -4.7494 7.66445 -3.97099
rclavicle 9.95414e-014 6.75868e-015
rhumerus -25.0307 8.16613 -84.7376
rradius 53.7698
rwrist -0.294311
rhand -21.058 -13.1814
rfingers 7.12502
rthumb 5.31839 -43.0947
lclavicle 9.95414e-014 6.75868e-015
lhumerus -42.6421 13.2061 57.3335
lradius 17.3022
lwrist 22.0199
lhand -17.9846 8.89396
lfingers 7.12502
lthumb 8.28516 38.7115
rfemur 10.774 -2.1701 24.1923
rtibia 26.5812
rfoot -28.7424 -15.2732
rtoes -9.25916
lfemur -24.0876 23.9376 -24.6668
ltibia 33.865
lfoot -19.923 11.0223
ltoes 2.31608
555
root 16.0198 15.7863 -20.6397 161.42 -68.7595 -163.662
lowerback 0.893797 5.66305 11.5355
upperback 4.94656 7.25824 -0.680303
thorax 6.31534 4.1339 -6.70663
lowerneck 15.7523 11.0296 6.34664
upperneck -10.4178 15.5273 -5.02689
head -4.76212 7.72268 -3.75413
rclavicle -1.14301e-014 3.18055e-015
rhumerus -25.4012 8.03581 -85.5346
rradius 53.3608
rwrist 0.313082
rhand -21.0237 -12.9974
rfingers 7.12502
rthumb 5.35147 -42.9099
lclavicle -1.14301e-014 3.18055e-015
lhumerus -41.8924 14.4811 56.6135
lradius 16.4408
lwrist 20.7399
lhand -19.1882 8.66675
lfingers 7.12502
lthumb 7.12347 38.5269
rfemur 10.8733 -1.90642 24.032
rtibia 27.1251
rfoot -28.4192 -15.4344
rtoes -10.4659
lfemur -23.9108 24.0058 -24.7127
ltibia 34.227
lfoot -19.5638 10.6306
ltoes 3.89546
556
root 15.8935 15.7995 -20.6911 162.091 -69.0423 -164.328
lowerback 0.848455 5.63954 11.0201
upperback 4.51852 7.29759 -1.13919
thorax 5.87111 4.1162 -6.93329
lowerneck 15.5282 11.1528 6.09458
upperneck -10.2476 15.7054 -4.38402
head -4.73728 7.77096 -3.51858
rclavicle 3.61291e-014 3.57812e-015
rhumerus -25.7699 7.83903 -86.2984
rradius 52.8641
rwrist 0.907791
rhand -20.935 -12.8364
rfingers 7.12502
rthumb 5.43714 -42.7466
lclavicle 3.61291e-014 3.57812e-015
lhumerus -41.0113 15.6997 56.1134
lradius 15.6462
lwrist 19.4073
lhand -20.4636 8.45141
lfingers 7.12502
lthumb 5.89225 38.3495
rfemur 10.8424 -1.76073 23.7714
rtibia 27.9763
rfoot -28.0282 -15.5602
rtoes -11.5747
lfemur -23.5738 23.9243 -24.823
ltibia 34.4321
lfoot -19.1739 10.3509
ltoes 5.39099
557
root 15.7675 15.8139 -20.7373 162.48 -69.3681 -164.731
lowerback 0.78936 5.599 10.6566
upperback 4.12614 7.29695 -1.56609
thorax 5.48685 4.08731 -7.20733
lowerneck 15.2446 11.2598 5.83044
upperneck -10.0416 15.8549 -3.74648
head -4.69534 7.80823 -3.27686
rclavicle 1.28216e-014 -7.95139e-015
rhumerus -26.1456 7.62154 -87.0036
rradius 52.3354
rwrist 1.40335
rhand -20.7446 -12.7244
rfingers 7.12502
rthumb 5.62097 -42.6299
lclavicle 1.28216e-014 -7.95139e-015
lhumerus -40.0118 16.748 55.9254
lradius 14.9798
lwrist 18.1695
lhand -21.6835 8.22446
lfingers 7.12502
lthumb 4.7144 38.152
rfemur 10.7183 -1.77532 23.5271
rtibia 29.0303
rfoot -27.4771 -15.6279
rtoes -12.5751
lfemur -23.0986 23.7328 -24.8574
ltibia 34.5192
lfoot -18.8477 10.081
ltoes 6.8575
558
root 15.6388 15.8308 -20.7783 162.359 -69.6671 -164.606
lowerback 0.663277 5.55717 10.5411
upperback 3.7686 7.27228 -1.92391
thorax 5.20178 4.05888 -7.53661
lowerneck 14.9489 11.3538 5.56259
upperneck -9.84904 15.9817 -3.14205
head -4.65547 7.83808 -3.04406
rclavicle 6.71892e-014 -1.27222e-014
rhumerus -26.5318 7.44182 -87.6352
rradius 51.8188
rwrist 1.74399
rhand -20.4415 -12.6733
rfingers 7.12502
rthumb 5.91361 -42.5708
lclavicle 6.71892e-014 -1.27222e-014
lhumerus -38.9066 17.4611 56.1583
lradius 14.5113
lwrist 17.259
lhand -22.7296 7.99125
lfingers 7.12502
lthumb 3.70424 37.9388
rfemur 10.5124 -1.95684 23.3908
rtibia 30.2131
rfoot -26.6781 -15.6556
rtoes -13.5064
lfemur -22.512 23.426 -24.7015
ltibia 34.5159
lfoot -18.635 9.83465
ltoes 8.30416
559
root 15.5057 15.8505 -20.8142 161.719 -69.8935 -163.913
lowerback 0.426011 5.52736 10.6747
upperback 3.44337 7.23986 -2.19733
thorax 5.03736 4.0389 -7.90136
lowerneck 14.6738 11.4403 5.30207
upperneck -9.69588 16.0943 -2.60294
head -4.62656 7.86578 -2.83463
rclavicle -5.96354e-016 1.98785e-014
rhumerus -26.9175 7.35896 -88.183
rradius 51.3362
rwrist 1.88729
rhand -20.0228 -12.6646
rfingers 7.12502
rthumb 6.31777 -42.5503
lclavicle -5.96354e-016 1.98785e-014
lhumerus -37.7171 17.7077 56.8711
lradius 14.2921
lwrist 16.8805
lhand -23.4934 7.7459
lfingers 7.12502
lthumb 2.96659 37.705
rfemur 10.2035 -2.27467 23.3799
rtibia 31.5073
rfoot -25.619 -15.627
rtoes -14.256
lfemur -21.8473 23.0148 -24.3373
ltibia 34.4265
lfoot -18.5664 9.65252
ltoes 9.70195
560
root 15.3687 15.8737 -20.8464 160.852 -70.0421 -162.961
lowerback 0.0836091 5.51415 10.9135
upperback 3.15366 7.20994 -2.40245
thorax 4.97625 4.0268 -8.23958
lowerneck 14.4352 11.5301 5.05826
upperneck -9.5849 16.208 -2.14536
head -4.60887 7.89933 -2.65619
rclavicle 4.90998e-014 5.56597e-015
rhumerus -27.2941 7.41518 -88.6465
rradius 50.9073
rwrist 1.84576
rhand -19.5067 -12.678
rfingers 7.12502
rthumb 6.81603 -42.5483
lclavicle 4.90998e-014 5.56597e-015
lhumerus -36.4651 17.4033 58.0748
lradius 14.3592
lwrist 17.1998
lhand -23.9427 7.52497
lfingers 7.12502
lthumb 2.5327 37.4897
rfemur 9.75516 -2.66221 23.4071
rtibia 32.956
rfoot -24.3084 -15.6093
rtoes -14.8389
lfemur -21.1001 22.5246 -23.8718
ltibia 34.2258
lfoot -18.6389 9.57904
ltoes 10.9516
